<?xml version="1.0" encoding="utf-8"?>
<!-- Generator: Adobe Illustrator 15.0.0, SVG Export Plug-In . SVG Version: 6.00 Build 0)  -->
<!DOCTYPE svg PUBLIC "-//W3C//DTD SVG 1.1//EN" "http://www.w3.org/Graphics/SVG/1.1/DTD/svg11.dtd">
<svg version="1.1" id="Layer_1" xmlns="http://www.w3.org/2000/svg" xmlns:xlink="http://www.w3.org/1999/xlink" x="0px" y="0px"
	 width="72.167px" height="72.167px" viewBox="0 0 72.167 72.167" enable-background="new 0 0 72.167 72.167" xml:space="preserve">
<g>
	<g>
		<path d="M37.932,34.916c-0.003,0.022-0.035,0.016-0.058,0.019c0.005,0.068,0.051-0.001,0.058,0.039
			c0.029-0.004,0.076-0.142,0-0.133C37.988,34.874,37.879,34.898,37.932,34.916z"/>
		<path d="M22.394,21.018c0,1.507,0.933,2.794,2.248,3.306v0l0.021,0.008c0.019,0.007,0.038,0.014,0.056,0.021l9.563,3.567
			l0.001,0.002c0.42,0.157,0.809,0.384,1.148,0.667v-8.486H35.43c0-0.002,0.001-0.004,0.001-0.006c0-1.114-0.715-2.062-1.711-2.409
			l-9.205-3.482h0c-0.744-0.273-1.273-0.987-1.273-1.825c0-0.003,0-0.006,0-0.01l0,0V5.191c-0.05-0.002-0.085,0.05-0.119-0.032
			c0.132,0.032-0.031-0.043-0.038-0.095c0.037-0.008,0.082-0.007,0.076-0.057h-0.095c-0.099-0.179,0.031-0.18,0.176-0.138V1.112
			c0-0.235-0.191-0.425-0.425-0.425c-0.235,0-0.425,0.19-0.425,0.425v19.876c0,0.006,0.001,0.014,0.001,0.021
			C22.394,21.012,22.394,21.015,22.394,21.018z M33.201,21.178c0.054,0.008,0.086,0.041,0.095,0.096
			C33.263,21.241,33.185,21.258,33.201,21.178z M26.087,18.889c0.056,0.023,0.079,0.021,0.094-0.038
			c0.021,0.005,0.014,0.038,0.038,0.038c-0.063,0.015-0.125,0.103-0.189,0.057C26.021,18.901,26.116,18.957,26.087,18.889z
			 M25.561,17.704c-0.02,0.09,0.056,0.084,0.076,0.134c0.04-0.007-0.028-0.059-0.038-0.076c0.034,0.008,0.147-0.019,0.151,0.076
			c-0.018-0.001-0.014-0.024-0.019-0.039c-0.06,0.037,0.016,0.097,0.039,0.114c-0.005,0.039-0.083,0.005-0.095,0.038
			c0.012,0.02,0.043,0.02,0.038,0.057c0.016-0.01,0.03-0.019,0.057-0.019c-0.016,0.066,0.027,0.073,0.019,0.133
			c-0.037-0.008-0.068,0.013-0.039,0.019c-0.022,0.034-0.084-0.052-0.132-0.056c-0.039,0.089-0.02-0.037-0.114-0.039
			c0.069-0.084-0.039-0.137,0.02-0.228c-0.004-0.023-0.057-0.024-0.058,0C25.439,17.798,25.526,17.729,25.561,17.704z
			 M25.446,17.857c0.055,0.068-0.014,0.074,0.057,0.151c-0.028,0.022-0.048,0.022-0.076,0
			C25.494,17.971,25.394,17.911,25.446,17.857z"/>
		<path d="M35.379,34.206c0.036,0.014,0.045,0.001,0.052-0.014v-2.075H35.43c0-0.001,0.001-0.003,0.001-0.006
			c0-1.115-0.715-2.062-1.711-2.41l-0.1-0.038c-0.012,0.002-0.024,0.005-0.041,0.005c0-0.007,0.003-0.013,0.006-0.019l-0.062-0.024
			c-0.001,0.006-0.001,0.015,0,0.023c-0.02-0.007-0.032-0.021-0.042-0.038l-0.052-0.02c0,0,0,0.001,0,0.002
			c-0.089,0.03-0.108-0.027-0.152,0.037c0.016,0.056,0.047-0.023,0.095,0c0.012,0.07,0.057,0.085,0,0.133
			c0.02,0.031,0.058-0.048,0.114,0v0.076c0.056,0.012-0.019,0.041,0,0.076c0.07-0.01,0.056-0.102,0.038-0.152
			c0.092,0.023,0.013,0.118,0.076,0.152c0.019-0.045,0.042-0.085,0.076-0.114c0.052,0.054-0.054,0.11-0.057,0.17
			c-0.067-0.061-0.064,0.009-0.152,0.019c0.068-0.06-0.031-0.075,0.02-0.152c-0.034,0.045-0.108-0.08-0.114,0.038
			c-0.07,0.007-0.05-0.077-0.132-0.057c0.057-0.056-0.04-0.042-0.02-0.114c0.092,0,0.045,0.066,0.076,0.095
			c0.041-0.039-0.014-0.182-0.095-0.208c0.029-0.017,0.055-0.038,0.083-0.057l-9.152-3.461c0-0.001,0-0.001,0-0.001
			c-0.659-0.256-1.25-0.65-1.738-1.148v8.078c0,0.005,0.001,0.013,0.001,0.021c0,0.003,0,0.005,0,0.008
			c0,1.507,0.933,2.793,2.248,3.306v0.002l0.021,0.007c0.019,0.007,0.038,0.014,0.056,0.021l9.563,3.568l0.001,0.001
			c0.42,0.158,0.809,0.384,1.148,0.667v-6.309C35.399,34.278,35.389,34.243,35.379,34.206z M22.998,30.066
			c0.066-0.038-0.034-0.099,0.019-0.152c0.056,0.067-0.014,0.074,0.058,0.152C23.046,30.088,23.026,30.088,22.998,30.066z
			 M23.358,30.18c-0.036-0.008-0.068,0.012-0.038,0.019c-0.023,0.035-0.084-0.053-0.132-0.056c-0.04,0.089-0.021-0.038-0.114-0.039
			c0.068-0.083-0.04-0.138,0.019-0.228c-0.005-0.024-0.058-0.025-0.058,0c-0.025-0.021,0.061-0.09,0.096-0.114
			c-0.019,0.088,0.056,0.083,0.075,0.132c0.041-0.006-0.026-0.059-0.037-0.075c0.034,0.007,0.147-0.02,0.152,0.075
			c-0.018,0-0.015-0.022-0.019-0.038c-0.06,0.036,0.016,0.096,0.038,0.114c-0.005,0.039-0.084,0.005-0.096,0.038
			c0.013,0.02,0.044,0.021,0.039,0.058c0.015-0.011,0.03-0.021,0.057-0.02C23.324,30.113,23.367,30.12,23.358,30.18z M23.6,31.004
			c-0.008-0.045,0.086,0.012,0.058-0.057c0.056,0.023,0.079,0.021,0.094-0.037c0.021,0.004,0.013,0.037,0.039,0.037
			C23.726,30.962,23.664,31.05,23.6,31.004z M30.771,33.236c0.055,0.008,0.086,0.04,0.095,0.094
			C30.834,33.298,30.754,33.315,30.771,33.236z M32.154,29.288c-0.002,0.022-0.034,0.017-0.057,0.019
			c0.003-0.016-0.006-0.018-0.019-0.019c0.021-0.042,0.031-0.095,0.057-0.133h0.018c-0.025,0.024-0.036,0.101,0.039,0.076
			C32.196,29.256,32.096,29.269,32.154,29.288z M33.484,31.983c-0.052,0.015,0.014-0.089-0.039-0.075
			c0.018,0.096,0.081,0.197-0.095,0.246v-0.057c0.067,0.036,0.06-0.017,0.095-0.057c-0.01-0.015-0.019-0.03-0.019-0.057
			c-0.033,0.005-0.043,0.033-0.038,0.077c-0.047,0.004-0.102-0.093-0.095,0.019c-0.074-0.037,0.025-0.052-0.019-0.133
			c0.116-0.027,0.093-0.073,0.227-0.077c0.017,0.016,0.012,0.053,0.039,0.058C33.538,31.963,33.478,31.939,33.484,31.983z"/>
		<path d="M48.469,26.074l-9.59,3.627c-0.997,0.348-1.711,1.295-1.711,2.41c0,0.003,0.001,0.005,0.001,0.006h-0.001v8.485
			c0.341-0.283,0.727-0.509,1.149-0.667l0.001-0.001l9.562-3.568c0.019-0.006,0.038-0.014,0.057-0.021l0.021-0.007v-0.002
			c1.315-0.512,2.248-1.798,2.248-3.306c0-0.003,0-0.005,0-0.008c0.001-0.007,0.001-0.016,0.001-0.021v-8.078
			C49.721,25.423,49.128,25.817,48.469,26.074C48.469,26.073,48.469,26.073,48.469,26.074z M38.044,34.935
			c0.082,0.079-0.097,0.076,0,0.114c-0.027,0.056-0.086-0.015-0.075-0.057c-0.018,0.014-0.027,0.035-0.037,0.057
			c-0.039,0.009-0.045-0.104-0.078-0.038c-0.059-0.049,0.048-0.09,0.021-0.171h0.058c0.067-0.026,0.099,0.012,0.094-0.076
			c0.03,0.007,0.017,0.06,0.076,0.038c0.014,0.059-0.064,0.024-0.038,0.096c0.02-0.013,0.021-0.044,0.058-0.038
			c-0.004,0.021,0.004,0.033,0.02,0.038C38.136,34.938,38.092,34.938,38.044,34.935z M45.655,27.771c0.038,0.02,0.062,0,0.112,0.038
			C45.756,27.876,45.646,27.833,45.655,27.771z M46.241,27.542c-0.032-0.008-0.036,0.015-0.038,0.038
			c-0.081-0.014-0.109-0.031-0.075,0.058c-0.047,0.006-0.041-0.035-0.095-0.02c-0.023-0.067-0.099-0.112,0.018-0.133
			c-0.102-0.048,0.088-0.084-0.018-0.114c0.012-0.046,0.096-0.01,0.074,0.039c0.028-0.005,0.007-0.057,0.04-0.057
			c0.041-0.015,0.066,0.095,0.076,0C46.288,27.386,46.223,27.45,46.241,27.542z M46.526,27.125c-0.097-0.01-0.051,0.016-0.075,0.056
			c-0.017-0.003-0.021-0.018-0.038-0.018v-0.038c0.059-0.01,0.093-0.045,0.113-0.095C46.604,27.056,46.53,27.078,46.526,27.125z
			 M48.122,26.935c-0.007-0.07-0.07-0.082-0.114-0.114c-0.021,0.071,0.07,0.031,0.057,0.095c-0.081-0.073-0.125,0.05-0.172-0.058
			c0.133,0.034-0.031-0.042-0.038-0.094c0.036-0.009,0.083-0.007,0.078-0.058h-0.096c-0.115-0.208,0.079-0.175,0.246-0.113
			c-0.017,0.033-0.062,0.059,0,0.076c0.026-0.024,0.002-0.101,0.077-0.076c0.004,0.104-0.07,0.019-0.058,0.113h-0.02
			c0.004,0.049,0.098,0.092,0.02,0.114c0.001-0.033-0.016-0.048-0.038-0.056c-0.024,0.138,0.119,0.026,0.133,0.056
			C48.151,26.839,48.149,26.898,48.122,26.935z"/>
		<path d="M40.36,22.858c-0.003,0.022-0.035,0.016-0.057,0.02c0.005,0.066,0.051-0.001,0.057,0.038c0.03-0.004,0.078-0.142,0-0.133
			C40.419,22.815,40.309,22.841,40.36,22.858z"/>
		<path d="M49.782,0.687c-0.235,0-0.425,0.19-0.425,0.425v11.259h-0.001c0,0.003,0.001,0.006,0.001,0.01
			c0,0.838-0.53,1.552-1.274,1.825l0,0l-9.204,3.482c-0.997,0.348-1.711,1.295-1.711,2.409c0,0.002,0.001,0.004,0.001,0.006h-0.001
			v8.486c0.341-0.283,0.727-0.51,1.149-0.667l0.001-0.002l9.562-3.567c0.019-0.007,0.038-0.014,0.057-0.021l0.021-0.008v0
			c1.315-0.512,2.248-1.798,2.248-3.306c0-0.003,0-0.006,0-0.009c0.001-0.008,0.001-0.015,0.001-0.021v-6.644
			c0-0.002,0-0.003,0-0.005V1.112C50.206,0.877,50.017,0.687,49.782,0.687z M37.883,22.243c-0.048-0.006-0.063-0.049-0.074-0.095
			c0.071,0.027,0.037-0.052,0.095-0.038C37.891,22.173,37.848,22.174,37.883,22.243z M40.474,22.877
			c0.083,0.078-0.098,0.076,0,0.114c-0.026,0.058-0.085-0.014-0.075-0.057c-0.018,0.014-0.029,0.034-0.038,0.057
			c-0.037,0.01-0.043-0.104-0.076-0.038c-0.059-0.049,0.047-0.091,0.02-0.171h0.057c0.068-0.026,0.099,0.012,0.095-0.076
			c0.029,0.008,0.016,0.06,0.076,0.037c0.015,0.059-0.066,0.024-0.038,0.096c0.021-0.013,0.021-0.044,0.058-0.039
			c-0.003,0.023,0.004,0.035,0.019,0.039C40.567,22.881,40.521,22.88,40.474,22.877z"/>
		<path d="M23.242,5.159V5.125c-0.002-0.001-0.004-0.002-0.005-0.003C23.231,5.142,23.235,5.152,23.242,5.159z"/>
	</g>
	<g>
		<path d="M21.158,51.935c0,0.021,0.028,0.039,0.035,0c-0.027-0.007-0.04-0.029-0.035-0.068c-0.051,0.007-0.127-0.014-0.139,0.034
			c0.041,0.002,0.041,0.047,0.053,0.077h0.056C21.13,51.957,21.134,51.937,21.158,51.935z"/>
		<path d="M52.938,51.978h0.093c0.013-0.055-0.001-0.114-0.019-0.144C52.959,51.854,52.941,51.906,52.938,51.978z"/>
		<path d="M40.158,47.618c0.124-0.034,0.104-0.188,0.071-0.241C40.153,47.404,40.147,47.505,40.158,47.618z"/>
		<path d="M56.001,46.856L56.001,46.856c-0.044-0.381-0.367-0.678-0.757-0.678H43.741c0.043,0.053,0.083,0.096-0.012,0.124
			c0.002-0.06-0.025-0.089-0.068-0.105c-0.044,0.255,0.22,0.051,0.242,0.105c-0.084,0.031-0.09,0.141-0.138,0.207
			c-0.012-0.129-0.128-0.15-0.209-0.207c-0.037,0.129,0.129,0.055,0.104,0.173c-0.146-0.135-0.229,0.093-0.312-0.104
			c0.241,0.061-0.058-0.079-0.07-0.174c0.029-0.007,0.061-0.01,0.087-0.019H20.84c0.002,0.012,0.003,0.022,0.006,0.035
			c-0.034,0.094-0.204,0.008-0.139,0.069c-0.051,0.104-0.154-0.026-0.139-0.104h-4.249c-0.214,0-0.408,0.089-0.546,0.233
			c-0.01,0.029-0.029,0.048-0.048,0.054c-0.023,0.03-0.044,0.062-0.062,0.093c0.202-0.016,0.38-0.08,0.398-0.275
			c0.012-0.055,0.062,0.031,0.069-0.034c0.091-0.011-0.032,0.194,0.104,0.138c-0.083,0.108,0.073,0.242-0.104,0.243
			c0.058-0.069-0.003-0.045,0-0.14c-0.099,0.046-0.039,0.247-0.068,0.273c-0.032-0.009-0.215-0.043-0.209-0.169
			c-0.099-0.006-0.066,0.116-0.208,0.071v-0.074c-0.038,0.074-0.064,0.152-0.078,0.236l0,0c-0.091,0.737,1.203,1.489,1.203,2.249
			c0,0.772,2.198,1.534,2.292,2.28l0.001-0.001c0.048,0.258,0.227,0.471,0.466,0.566v-0.162c0.098-0.005,0.144-0.064,0.242-0.069
			c0.072,0.245,0.026,0.191,0.114,0.286h0.609c-0.012-0.065-0.014-0.128,0.006-0.181c0.095-0.025,0.07,0.069,0.139,0.069
			c-0.029-0.028-0.021-0.096-0.07-0.105c0.094-0.146,0.41-0.082,0.521,0c0.169-0.059,0.244-0.001,0.312-0.138
			c0.031,0.021,0.062,0.043,0.07,0c0.08-0.011,0.038,0.1,0.103,0.104c0.011,0.081-0.1,0.038-0.103,0.104
			c-0.068-0.07-0.141-0.081-0.243-0.034c-0.009,0.068,0.001,0.128,0.018,0.181h1.705c-0.058-0.094-0.291-0.091-0.232-0.181
			c-0.162,0.094-0.167-0.118-0.347-0.105c-0.007-0.028,0.013-0.032,0.034-0.033v-0.07c0.159,0.086,0.42,0.248,0.556,0.243
			c0.063,0.007,0.038,0.099,0.016,0.146h11.84c0.012-0.013,0.02-0.033,0.016-0.064H34.66c-0.211-0.379,0.148-0.32,0.451-0.207
			c-0.031,0.062-0.116,0.108,0,0.139c0.048-0.044,0.002-0.183,0.139-0.139c0.008,0.19-0.126,0.038-0.104,0.207h-0.034
			c0.002,0.023,0.013,0.045,0.028,0.064h17.605c0.006-0.003,0.014-0.004,0.023-0.005c-0.188-0.087,0.16-0.154-0.033-0.209
			c0.02-0.084,0.173-0.018,0.136,0.07c0.052-0.009,0.014-0.104,0.071-0.104c0.076-0.027,0.122,0.173,0.139,0
			c0.092,0.049,0.037,0.131,0.027,0.247c0.381-0.007,0.69-0.292,0.742-0.657l0,0c0.091-0.734,1.48-1.482,1.48-2.242
			C55.331,48.324,56.089,47.585,56.001,46.856z M18.037,48.121c0.169-0.14-0.109-0.051-0.069-0.242h0.104
			c0,0.126,0.068,0.185,0.138,0.242C18.205,48.197,18.124,48.076,18.037,48.121z M19.666,49.646h-0.138
			c0.064-0.064,0.003-0.088,0-0.174c0.083-0.013,0.075,0.064,0.173,0.035C19.674,49.539,19.665,49.587,19.666,49.646z
			 M20.638,49.611c0.046,0.022,0.064,0.074,0.069,0.14c-0.081,0.001-0.103-0.061-0.208-0.036
			C20.509,49.645,20.652,49.707,20.638,49.611z M20.395,49.508c0.041,0.006,0.029,0.063,0.034,0.104
			c0.05,0.002,0.098,0.006,0.105-0.033c0.094,0.031-0.08,0.076-0.07,0.137C20.376,49.711,20.395,49.6,20.395,49.508z M20.464,50.098
			c0.019-0.029,0.036-0.058,0.034-0.104c0.032,0.073,0.198-0.005,0.104-0.035c0.135-0.04,0.136,0.156,0.208,0.311
			c-0.061-0.031-0.12-0.062-0.104-0.172C20.581,50.09,20.574,50.05,20.464,50.098z M20.846,51.414c-0.103-0.029,0.045-0.086,0-0.173
			c-0.052,0.029-0.074,0.088-0.07,0.173c-0.061-0.03-0.101-0.082-0.174-0.104c0.026-0.076,0.133-0.074,0.14-0.171
			c0.083-0.017,0.076,0.062,0.173,0.034C20.876,51.238,20.871,51.335,20.846,51.414z M22.787,51.691
			c-0.141-0.009,0.054-0.183-0.104-0.207c0.159,0.042,0.277-0.168,0.485,0.069C23.109,51.665,22.766,51.403,22.787,51.691z
			 M23.917,51.207c-0.105,0.032-0.173,0.222-0.193-0.034c-0.092,0.177-0.165-0.18,0.07-0.105c-0.05,0.152,0.117,0.098,0.104,0
			C23.997,51.078,23.846,51.193,23.917,51.207z M24.347,51.414c-0.027-0.076-0.115-0.092-0.104-0.208
			c0.029,0.021,0.057,0.037,0.104,0.035V51.414z M38.945,51.642c-0.011-0.101,0.077-0.105,0.07-0.208
			c0.104-0.012,0.071,0.113,0.103,0.174C39.009,51.59,39.025,51.727,38.945,51.642z M39.257,48.035
			c0.075,0.037,0.116-0.002,0.208,0.071C39.443,48.229,39.243,48.151,39.257,48.035z M40.331,47.618
			c-0.059-0.01-0.065,0.028-0.069,0.07c-0.146-0.025-0.2-0.055-0.138,0.105c-0.085,0.015-0.076-0.064-0.174-0.036
			c-0.038-0.124-0.18-0.204,0.034-0.242c-0.187-0.087,0.159-0.153-0.034-0.208c0.022-0.084,0.177-0.019,0.14,0.069
			c0.05-0.008,0.012-0.104,0.068-0.105c0.078-0.026,0.124,0.174,0.139,0C40.415,47.333,40.296,47.451,40.331,47.618z M40.854,46.857
			c-0.178-0.019-0.095,0.029-0.14,0.104c-0.029-0.008-0.035-0.037-0.07-0.037v-0.067c0.108-0.019,0.172-0.083,0.21-0.175
			C40.992,46.73,40.86,46.771,40.854,46.857z M41.441,49.735c-0.045-0.008-0.045-0.104,0-0.105c-0.016-0.03-0.031-0.062-0.068-0.068
			c0.052-0.114,0.083,0.071,0.173,0.034C41.531,49.663,41.41,49.622,41.441,49.735z M43.974,48.729
			c-0.062-0.008-0.081-0.061-0.07-0.139c0.073-0.016,0.094,0.022,0.138,0.035C44.021,48.661,43.962,48.661,43.974,48.729z
			 M53.635,51.314c-0.175-0.02-0.095,0.028-0.139,0.103c-0.027-0.007-0.033-0.034-0.068-0.034v-0.068
			c0.106-0.02,0.171-0.083,0.207-0.173C53.777,51.186,53.643,51.229,53.635,51.314z M54.757,47.563
			c-0.061-0.044-0.137-0.071-0.14-0.172c0.13,0.121,0.003-0.147,0.07-0.035c0.033-0.001,0.027-0.044,0.035-0.069
			c0.095-0.025,0.069,0.069,0.137,0.069C54.879,47.479,54.805,47.507,54.757,47.563z M54.964,46.835
			c-0.029-0.018-0.056-0.036-0.104-0.035c0.061,0.022,0.06,0.104,0.104,0.14c-0.024,0.061-0.062,0.006-0.104,0
			c-0.015,0.084,0.065,0.075,0.037,0.172c-0.045-0.021-0.302,0.014-0.209,0.14c-0.139-0.051-0.066-0.134-0.104-0.241
			c0.095,0.089,0.065-0.139,0.244-0.07c-0.074-0.127-0.057-0.169,0.032-0.275C54.895,46.722,54.988,46.72,54.964,46.835z"/>
		<path d="M20.95,51.9c-0.032,0.175-0.103-0.102-0.174,0.034c0.027,0.002,0.039,0.02,0.047,0.043h0.172
			C21.001,51.948,21.032,51.906,20.95,51.9z"/>
		<path d="M20.652,46.179h-0.074C20.604,46.181,20.629,46.181,20.652,46.179z"/>
	</g>
	<path d="M36.301,42.737c0-0.363-0.709-0.783-0.709-0.783v8.074c0,0.479,0.32,0.865,0.714,0.865c0.394,0,0.715-0.387,0.715-0.865
		v-8.087C37.021,41.941,36.301,42.368,36.301,42.737z"/>
	<path d="M37.862,16.176l1.368-0.518c-0.154-1.497-1.409-2.663-2.934-2.663s-2.779,1.167-2.933,2.665l1.364,0.516l0,0
		c0.637,0.238,1.183,0.667,1.567,1.215C36.679,16.843,37.224,16.415,37.862,16.176L37.862,16.176z"/>
	<g>
		<path d="M43.079,4.354c-0.022-0.068-0.099-0.112,0.019-0.133c-0.103-0.048,0.086-0.085-0.019-0.114
			c0.006-0.021,0.024-0.025,0.044-0.019V3.707c0-0.234-0.189-0.425-0.424-0.425c-0.235,0-0.425,0.191-0.425,0.425v10.397
			c0,0.235,0.189,0.425,0.425,0.425c0.234,0,0.424-0.19,0.424-0.425V4.357C43.113,4.352,43.101,4.347,43.079,4.354z M42.699,4.506
			c0.041,0.019,0.063-0.001,0.114,0.038C42.802,4.612,42.691,4.569,42.699,4.506z"/>
		<path d="M26.439,1.967c-0.234,0-0.424,0.19-0.424,0.425v10.397c0,0.235,0.19,0.424,0.424,0.424c0.235,0,0.425-0.189,0.425-0.424
			V2.392C26.864,2.157,26.674,1.967,26.439,1.967z"/>
		<path d="M29.9,3.282c-0.234,0-0.425,0.191-0.425,0.425v2.451c0.033,0.008,0.069,0.021,0.103,0.032
			c-0.016,0.035-0.063,0.059,0,0.077c0.026-0.024,0.001-0.101,0.076-0.077c0.005,0.104-0.068,0.021-0.057,0.114h-0.019
			c0.004,0.049,0.098,0.092,0.019,0.114c0.001-0.032-0.014-0.048-0.038-0.057C29.536,6.5,29.68,6.387,29.693,6.417
			c-0.046,0.018-0.049,0.077-0.077,0.114c-0.006-0.07-0.069-0.083-0.114-0.114c-0.019,0.071,0.071,0.03,0.058,0.095
			c-0.033-0.031-0.061-0.027-0.084-0.02v7.611c0,0.235,0.191,0.425,0.425,0.425s0.425-0.19,0.425-0.425V3.707
			C30.325,3.473,30.135,3.282,29.9,3.282z"/>
		<path d="M46.16,1.967c-0.235,0-0.425,0.19-0.425,0.425v7.482c0.022,0.006,0.043,0.031,0.032,0.057
			c0.027-0.004,0.007-0.056,0.039-0.057c0.043-0.015,0.067,0.095,0.074,0c0.064,0.033,0,0.098,0.02,0.189
			c-0.03-0.007-0.034,0.015-0.037,0.038c-0.081-0.014-0.109-0.03-0.076,0.057c-0.027,0.005-0.037-0.009-0.052-0.017v2.648
			c0,0.235,0.189,0.424,0.425,0.424c0.232,0,0.424-0.189,0.424-0.424V2.392C46.584,2.157,46.393,1.967,46.16,1.967z M46.186,9.646
			c-0.097-0.01-0.051,0.016-0.076,0.057c-0.015-0.004-0.019-0.019-0.037-0.019V9.646c0.06-0.01,0.095-0.045,0.113-0.095
			C46.263,9.577,46.189,9.6,46.186,9.646z"/>
	</g>
	<g>
		<path d="M20.152,53.7c0.011,0.011,0.023,0.021,0.036,0.031c0.004-0.037,0.034-0.08,0.039-0.093
			C20.182,53.639,20.176,53.679,20.152,53.7z"/>
		<path d="M16.056,27.193c-0.005,0.041-0.063,0.03-0.105,0.035c0.011,0.122,0.095-0.003,0.105,0.069c0.058-0.007,0.14-0.258,0-0.243
			C16.162,27.117,15.961,27.163,16.056,27.193z"/>
		<path d="M20.234,53.772c0.012,0.01,0.024,0.021,0.036,0.032c0.011-0.043,0.028-0.079,0.062-0.097
			c-0.006-0.027-0.035-0.034-0.035-0.069C20.236,53.644,20.271,53.745,20.234,53.772z"/>
		<path d="M16.254,27.433c0.015-0.039,0.03-0.077,0.046-0.115C16.272,27.373,16.146,27.386,16.254,27.433z"/>
		<path d="M16.336,27.23c-0.022,0-0.046,0-0.07-0.001c0.036,0.034,0.044,0.06,0.038,0.08C16.315,27.283,16.325,27.256,16.336,27.23z
			"/>
		<path d="M21.411,52.212c-0.052,0.005-0.129-0.014-0.141,0.035c0.067,0.004,0.025,0.114,0.105,0.104
			c0.007-0.026,0.001-0.067,0.036-0.069c0,0.02,0.027,0.039,0.034,0C21.418,52.273,21.405,52.253,21.411,52.212z"/>
		<path d="M53.299,52.422c0.125-0.036,0.104-0.189,0.072-0.242C53.293,52.209,53.288,52.308,53.299,52.422z"/>
		<path d="M58.807,25.977c-1.229-2.903-2.986-5.511-5.226-7.749c-0.551-0.553-1.126-1.074-1.723-1.568v3.75
			c3.783,3.898,6.116,9.21,6.116,15.059c0,3.228-0.711,6.292-1.984,9.045c-0.001,0.002-0.001,0.005-0.001,0.008
			c0.106-0.022,0.1-0.156,0.278-0.105c-0.013,0.109-0.118,0.136,0,0.21c-0.002-0.036,0.018-0.09,0.035-0.035
			c0.008,0.111-0.126,0.081-0.174,0.139c0.17,0.018-0.023,0.157-0.035,0.208c0.02-0.112-0.021-0.16-0.035-0.242
			c-0.068-0.011-0.068,0.047-0.103,0.069c-0.014-0.069-0.012-0.116-0.009-0.158c-0.025,0.053-0.049,0.104-0.074,0.155
			c0.101,0.012-0.002,0.127,0.012,0.212h0.141c0.098,0.116-0.221,0.146-0.271,0.035c-3.532,7.157-10.908,12.094-19.414,12.094
			c-6.129,0-11.671-2.562-15.611-6.671c-0.005,0.001-0.009,0.003-0.016,0.005c0.003-0.004,0.006-0.009,0.009-0.013
			c-3.725-3.888-6.017-9.16-6.017-14.956c0-2.825,0.545-5.524,1.533-8c-0.054,0.036-0.127-0.068-0.113-0.136
			c-0.032,0.025-0.052,0.063-0.069,0.104c-0.069,0.018-0.079-0.191-0.139-0.069c-0.109-0.09,0.087-0.167,0.034-0.313h0.105
			c0.125-0.048,0.184,0.021,0.174-0.139c0.054,0.014,0.03,0.109,0.139,0.07c0.027,0.107-0.12,0.042-0.069,0.174
			c0.034-0.021,0.037-0.073,0.095-0.07c0.51-1.209,1.126-2.362,1.838-3.447c-0.018,0.005-0.036,0.007-0.054,0.003
			c-0.048-0.151,0.082-0.125,0.104-0.209c0.031,0.007,0.048,0.024,0.056,0.045c0.711-1.065,1.516-2.064,2.4-2.986v-3.766
			c-0.567,0.472-1.114,0.971-1.64,1.499c-2.239,2.238-3.996,4.846-5.225,7.749c-1.271,3.007-1.917,6.201-1.917,9.492
			c0,3.291,0.646,6.485,1.917,9.492c1.229,2.902,2.986,5.51,5.225,7.749c0.316,0.318,0.642,0.624,0.973,0.921
			c0.012-0.03,0.031-0.068,0.016-0.131c0.111,0.155,0.195,0.029,0.418,0.104c0.006,0.075-0.029,0.111-0.104,0.104
			c0.031,0.118,0.079,0.004,0.138,0.068c-0.02,0.073-0.063,0.125-0.126,0.155c0.029,0.025,0.058,0.047,0.085,0.071
			c0.003-0.005,0.006-0.01,0.007-0.018c0.033,0.004,0.032,0.021,0.021,0.042c1.896,1.62,4.016,2.932,6.322,3.906
			c3.008,1.272,6.201,1.917,9.492,1.917c3.29,0,6.484-0.645,9.491-1.917c2.904-1.229,5.51-2.985,7.749-5.225
			s3.997-4.847,5.226-7.749c1.271-3.007,1.917-6.201,1.917-9.492C60.724,32.177,60.078,28.984,58.807,25.977z M57.089,26.238
			c-0.01-0.102,0.078-0.107,0.068-0.209c0.106-0.012,0.073,0.114,0.104,0.174C57.152,26.186,57.17,26.323,57.089,26.238z
			 M15.5,24.689c-0.021,0.116-0.102,0.119-0.034,0.243c-0.092-0.011-0.118-0.091-0.139-0.174
			C15.458,24.809,15.393,24.664,15.5,24.689z M15.257,27.645c0.104,0.044,0.146,0.039,0.173-0.068
			c0.038,0.009,0.024,0.068,0.07,0.068c-0.116,0.029-0.23,0.188-0.348,0.105C15.138,27.667,15.311,27.77,15.257,27.645z
			 M12.853,35.791c-0.011-0.128-0.127-0.15-0.209-0.208c-0.036,0.128,0.131,0.055,0.105,0.173c-0.146-0.134-0.23,0.093-0.314-0.104
			c0.243,0.059-0.056-0.079-0.069-0.174c0.066-0.016,0.15-0.013,0.141-0.104h-0.174c-0.212-0.381,0.147-0.322,0.452-0.208
			c-0.03,0.061-0.117,0.107,0,0.138c0.049-0.044,0.002-0.184,0.139-0.138c0.009,0.189-0.125,0.035-0.104,0.208h-0.034
			c0.008,0.089,0.18,0.167,0.034,0.209c0.002-0.062-0.026-0.088-0.069-0.104c-0.043,0.253,0.221,0.049,0.244,0.104
			C12.908,35.615,12.902,35.724,12.853,35.791z M13.062,38.018c-0.062-0.008-0.08-0.06-0.07-0.139
			c0.072-0.015,0.092,0.023,0.139,0.035C13.108,37.949,13.05,37.949,13.062,38.018z M15.844,46.646
			c0.072,0.076,0.112-0.031,0.173,0.033C16.016,46.859,15.819,46.833,15.844,46.646z M16.366,46.959c0.057-0.07-0.002-0.045,0-0.139
			c-0.099,0.044-0.039,0.246-0.068,0.273c-0.032-0.01-0.216-0.045-0.21-0.171c-0.099-0.005-0.068,0.118-0.209,0.069v-0.104
			c0.21-0.012,0.398-0.075,0.418-0.278c0.012-0.054,0.061,0.031,0.069-0.036c0.092-0.009-0.033,0.196,0.105,0.14
			C16.386,46.823,16.543,46.958,16.366,46.959z M18.279,48.454c0.169-0.139-0.111-0.049-0.07-0.242h0.104
			c0,0.126,0.069,0.185,0.139,0.242C18.447,48.533,18.366,48.41,18.279,48.454z M19.776,49.811c0.083-0.014,0.075,0.064,0.173,0.035
			c-0.027,0.031-0.037,0.079-0.036,0.14h-0.138C19.84,49.919,19.778,49.898,19.776,49.811z M20.018,52.455
			c-0.05-0.06-0.107-0.089-0.174-0.035c-0.097-0.001,0.083-0.095-0.068-0.069v-0.243c0.098-0.006,0.144-0.064,0.242-0.07
			c0.078,0.265,0.017,0.182,0.14,0.313C20.148,52.422,20.004,52.358,20.018,52.455z M20.993,51.48
			c0.084-0.015,0.076,0.064,0.174,0.036c-0.039,0.064-0.044,0.163-0.069,0.243c-0.103-0.03,0.045-0.087,0-0.175
			c-0.052,0.029-0.075,0.089-0.07,0.175c-0.061-0.032-0.102-0.084-0.174-0.104C20.879,51.576,20.986,51.578,20.993,51.48z
			 M21.724,52.177c-0.068-0.07-0.141-0.081-0.244-0.035c-0.027,0.204,0.113,0.354,0.104,0.349c0.053,0.079-0.122,0.225-0.173,0.313
			c0.006,0.026,0.034,0.033,0.034,0.069c0.042-0.016,0.071-0.045,0.07-0.106c0.115,0.033,0.03,0.079,0,0.142
			c-0.06,0.001-0.091-0.025-0.104-0.071c-0.058,0.134-0.178-0.037-0.105,0.141c-0.043-0.015-0.071-0.046-0.07-0.104
			c-0.104,0.138-0.231-0.043-0.333,0.053c0.061-0.074-0.101-0.051-0.119-0.122c-0.11-0.007-0.116,0.092-0.245,0.069
			c0.09-0.191,0.047-0.318,0.245-0.418c-0.042-0.104-0.07-0.223-0.036-0.313c0.096-0.025,0.071,0.068,0.14,0.07
			c-0.03-0.027-0.021-0.096-0.07-0.104c0.095-0.146,0.411-0.084,0.523,0c0.169-0.06,0.245-0.001,0.312-0.139
			c0.032,0.02,0.062,0.042,0.071,0c0.08-0.011,0.039,0.1,0.103,0.104C21.839,52.152,21.728,52.111,21.724,52.177z M22.071,54.438
			c-0.03,0.051-0.051-0.01-0.138,0.035c0.012-0.061-0.029-0.066-0.071-0.072c-0.02-0.183,0.144-0.02,0.175-0.103
			C22.159,54.31,21.949,54.429,22.071,54.438z M22.732,53.847c0.155,0.083,0.125-0.194,0.174-0.104
			c0.025,0.223-0.227,0.151-0.139,0.347c-0.16-0.101-0.145,0.087-0.313,0.07c-0.022-0.118-0.164-0.116-0.209-0.208
			c0.146,0.014,0.025-0.114,0.035-0.176c0.143-0.004,0.434-0.14,0.522-0.312h0.07c0.021,0.084,0.021,0.153,0.104,0.244
			C22.838,53.62,22.723,53.762,22.732,53.847z M30.644,57.827c-0.01-0.103,0.079-0.108,0.069-0.209
			c0.105-0.012,0.072,0.113,0.104,0.175C30.708,57.775,30.725,57.912,30.644,57.827z M52.394,52.84
			c0.076,0.038,0.117-0.002,0.21,0.069C52.582,53.035,52.382,52.956,52.394,52.84z M53.473,52.422
			c-0.06-0.013-0.065,0.028-0.069,0.07c-0.148-0.025-0.202-0.055-0.139,0.105c-0.084,0.014-0.076-0.064-0.174-0.035
			c-0.04-0.125-0.181-0.205,0.034-0.244c-0.187-0.088,0.159-0.154-0.034-0.208c0.021-0.085,0.177-0.02,0.14,0.069
			c0.048-0.008,0.012-0.104,0.068-0.104c0.077-0.027,0.125,0.175,0.14,0C53.557,52.135,53.437,52.254,53.473,52.422z M53.996,51.658
			c-0.178-0.02-0.097,0.027-0.141,0.104c-0.029-0.008-0.034-0.036-0.068-0.036v-0.068c0.107-0.02,0.172-0.084,0.209-0.174
			C54.137,51.53,54.002,51.571,53.996,51.658z M55.12,47.896c-0.062-0.046-0.137-0.073-0.14-0.175
			c0.131,0.123,0.003-0.146,0.069-0.033c0.034-0.002,0.027-0.043,0.036-0.07c0.094-0.024,0.068,0.07,0.139,0.07
			C55.244,47.811,55.168,47.839,55.12,47.896z M55.328,47.166c-0.027-0.021-0.056-0.037-0.104-0.035
			c0.059,0.021,0.056,0.104,0.104,0.139c-0.024,0.061-0.062,0.005-0.104,0c-0.015,0.084,0.062,0.075,0.034,0.173
			c-0.043-0.021-0.301,0.014-0.209,0.14c-0.138-0.052-0.064-0.134-0.104-0.243c0.095,0.091,0.066-0.139,0.242-0.069
			c-0.072-0.127-0.055-0.171,0.036-0.278C55.256,47.05,55.352,47.048,55.328,47.166z M56.511,46.713
			c-0.058-0.068,0.004-0.044,0-0.14c-0.061,0.008-0.079,0.062-0.068,0.14c-0.07,0.092-0.018-0.139,0-0.173h0.173
			C56.612,46.628,56.609,46.718,56.511,46.713z M56.65,45.982c0.035-0.045,0.035-0.129,0.068-0.173
			c0.013-0.081-0.1-0.04-0.104-0.104c-0.041,0.014-0.07,0.043-0.068,0.104c-0.097-0.043-0.222-0.059-0.21-0.21
			c0.229-0.075,0.163-0.037,0.382-0.14c0.09,0.115,0.006,0.197,0.105,0.313C56.686,45.674,56.87,46.008,56.65,45.982z
			 M59.402,29.533c-0.014-0.083,0.157,0.02,0.105-0.104c0.104,0.042,0.146,0.038,0.173-0.07c0.038,0.009,0.023,0.069,0.069,0.07
			C59.633,29.457,59.519,29.617,59.402,29.533z"/>
		<path d="M21.306,52.386c-0.006,0.041,0.006,0.099-0.036,0.104c-0.005-0.041-0.054-0.039-0.104-0.035
			c0.001-0.049-0.016-0.075-0.035-0.104c0.065-0.033,0.116,0.104,0.138,0c-0.071-0.01,0.053-0.095-0.068-0.104
			c-0.032,0.175-0.102-0.102-0.174,0.034c0.095,0.009,0.015,0.19,0.139,0.243c-0.18,0.069-0.151-0.036-0.174-0.104
			c-0.002,0.021-0.005,0.042-0.035,0.035c-0.007-0.028,0-0.068-0.035-0.069c-0.03,0.103,0.148,0.171,0.07,0.209
			c-0.263-0.144-0.151,0.021-0.174,0.172c0.024-0.068,0.106-0.078,0.139-0.139c0.067,0.048,0.125-0.011,0.174,0.104
			c0.007-0.18,0.194-0.177,0.313-0.242C21.374,52.479,21.377,52.396,21.306,52.386z"/>
	</g>
</g>
</svg>
