<?xml version="1.0" encoding="utf-8"?>
<!-- Generator: Adobe Illustrator 15.0.0, SVG Export Plug-In . SVG Version: 6.00 Build 0)  -->
<!DOCTYPE svg PUBLIC "-//W3C//DTD SVG 1.1//EN" "http://www.w3.org/Graphics/SVG/1.1/DTD/svg11.dtd">
<svg version="1.1" id="Layer_1" xmlns="http://www.w3.org/2000/svg" xmlns:xlink="http://www.w3.org/1999/xlink" x="0px" y="0px"
	 width="488.253px" height="99.333px" viewBox="0 0 488.253 99.333" enable-background="new 0 0 488.253 99.333"
	 xml:space="preserve">
<path fill="#FFFFFF" d="M421.132,25.676H11.312c-4.75,0-8.666,3.502-9.352,8.053H1.956c-1.139,9.152-1.737,18.485-1.737,27.938
	c0,9.589,0.615,19.023,1.774,28.298l0.019-0.007c0.816,4.364,4.638,7.677,9.243,7.708h409.931c4.773-0.031,8.69-3.578,9.318-8.174
	h0.01c1.118-9.113,1.705-18.392,1.705-27.825c0-9.346-0.58-18.543-1.681-27.599h-0.011
	C429.992,29.348,425.992,25.676,421.132,25.676z"/>
<g>
	<path fill="#FFFFFF" d="M448.726,25.667V4.556h-7.507V1.924h18.01v2.632h-7.547v21.11H448.726z"/>
	<path fill="#FFFFFF" d="M484.773,25.667V5.695l-8.04,19.972h-1.211l-8.08-19.972v19.972h-2.956V1.924h4.237l7.402,18.295
		l7.366-18.295h4.238v23.742H484.773z"/>
</g>
</svg>
