<?xml version="1.0" encoding="utf-8"?>
<!-- Generator: Adobe Illustrator 15.0.0, SVG Export Plug-In . SVG Version: 6.00 Build 0)  -->
<!DOCTYPE svg PUBLIC "-//W3C//DTD SVG 1.1//EN" "http://www.w3.org/Graphics/SVG/1.1/DTD/svg11.dtd">
<svg version="1.1" id="Layer_1" xmlns="http://www.w3.org/2000/svg" xmlns:xlink="http://www.w3.org/1999/xlink" x="0px" y="0px"
	 width="72.167px" height="72.167px" viewBox="0 0 72.167 72.167" enable-background="new 0 0 72.167 72.167" xml:space="preserve">
<g>
	<path d="M55.847,30.22H16.295c-0.412,0-0.751,0.303-0.81,0.697h0c-0.099,0.793-0.151,1.602-0.151,2.42
		c0,0.831,0.054,1.648,0.154,2.451l0.001-0.001c0.071,0.379,0.402,0.666,0.801,0.668h39.561c0.413-0.003,0.753-0.31,0.808-0.707l0,0
		c0.097-0.789,0.148-1.594,0.148-2.411c0-0.809-0.051-1.605-0.146-2.39l0,0C56.614,30.539,56.267,30.22,55.847,30.22z"/>
	<path d="M16.794,37.827l-1.409,15.647c-0.019,0.222,0.049,0.365,0.184,0.436l0,0c0.147,0.068,0.495,0.079,0.751,0.079
		c0.26,0,0.411-0.01,0.64-0.081v-0.001c0.153-0.052,0.234-0.215,0.262-0.431l2.622-15.649H16.794z"/>
	<path d="M54.89,37.827l1.409,15.647c0.018,0.222-0.048,0.365-0.184,0.436l0,0c-0.146,0.068-0.495,0.079-0.751,0.079
		c-0.261,0-0.411-0.01-0.641-0.081v-0.001c-0.153-0.052-0.233-0.215-0.261-0.431l-2.622-15.649H54.89z"/>
	<path d="M20.985,37.861l-1.079,11.972c-0.014,0.17,0.038,0.28,0.141,0.333l0,0c0.112,0.053,0.378,0.062,0.575,0.062
		c0.2,0,0.313-0.008,0.49-0.063l0-0.001c0.116-0.039,0.18-0.165,0.2-0.328l2.006-11.975H20.985z"/>
	<path d="M50.7,37.861l1.078,11.972c0.015,0.17-0.037,0.28-0.14,0.333l0,0c-0.114,0.053-0.379,0.062-0.576,0.062
		c-0.198,0-0.313-0.008-0.488-0.063v-0.001c-0.118-0.039-0.18-0.165-0.2-0.328l-2.007-11.975H50.7z"/>
	<path d="M46.945,28.111c0,0.312-0.253,0.566-0.566,0.566H25.75c-0.312,0-0.565-0.253-0.565-0.566v-0.425
		c0-0.312,0.253-0.565,0.565-0.565h20.628c0.313,0,0.566,0.252,0.566,0.565V28.111z"/>
	<path d="M44.911,14.384H27.219c-0.312,0-0.565,0.254-0.565,0.565v12.172h18.822V14.949C45.475,14.638,45.224,14.384,44.911,14.384z
		 M44.12,25.656h-16.11v-9.697c0-0.268,0.061-0.328,0.328-0.328h15.455c0.267,0,0.327,0.061,0.327,0.328V25.656z"/>
</g>
</svg>
