<?xml version="1.0" encoding="utf-8"?>
<!-- Generator: Adobe Illustrator 15.0.0, SVG Export Plug-In . SVG Version: 6.00 Build 0)  -->
<!DOCTYPE svg PUBLIC "-//W3C//DTD SVG 1.1//EN" "http://www.w3.org/Graphics/SVG/1.1/DTD/svg11.dtd">
<svg version="1.1" id="Layer_1" xmlns="http://www.w3.org/2000/svg" xmlns:xlink="http://www.w3.org/1999/xlink" x="0px" y="0px"
	 width="30px" height="23.477px" viewBox="0 0 30 23.477" enable-background="new 0 0 30 23.477" xml:space="preserve">
<path fill="#FFFFFF" d="M29.178,0H0.845c-0.329,0-0.6,0.242-0.646,0.557h0c-0.079,0.633-0.12,1.278-0.12,1.932
	c0,0.663,0.043,1.315,0.123,1.956h0.001c0.056,0.302,0.321,0.531,0.639,0.533h28.34c0.33-0.002,0.602-0.247,0.645-0.565l0,0
	c0.078-0.63,0.118-1.272,0.118-1.923c0-0.646-0.04-1.283-0.116-1.909h-0.001C29.791,0.254,29.515,0,29.178,0z"/>
<path fill="#FFFFFF" d="M29.178,9.25H0.845c-0.329,0-0.6,0.242-0.646,0.557h0c-0.079,0.633-0.12,1.278-0.12,1.932
	c0,0.663,0.043,1.315,0.123,1.956h0.001c0.056,0.302,0.321,0.531,0.639,0.533h28.34c0.33-0.002,0.602-0.247,0.645-0.565l0,0
	c0.078-0.63,0.118-1.272,0.118-1.923c0-0.646-0.04-1.283-0.116-1.909h-0.001C29.791,9.504,29.515,9.25,29.178,9.25z"/>
<path fill="#FFFFFF" d="M29.178,18.5H0.845c-0.329,0-0.6,0.242-0.646,0.557h0c-0.079,0.633-0.12,1.277-0.12,1.932
	c0,0.663,0.043,1.315,0.123,1.956h0.001c0.056,0.302,0.321,0.53,0.639,0.532h28.34c0.33-0.002,0.602-0.246,0.645-0.564l0,0
	c0.078-0.631,0.118-1.271,0.118-1.924c0-0.646-0.04-1.282-0.116-1.908h-0.001C29.791,18.754,29.515,18.5,29.178,18.5z"/>
</svg>
