<?xml version="1.0" encoding="utf-8"?>
<!-- Generator: Adobe Illustrator 15.0.0, SVG Export Plug-In . SVG Version: 6.00 Build 0)  -->
<!DOCTYPE svg PUBLIC "-//W3C//DTD SVG 1.1//EN" "http://www.w3.org/Graphics/SVG/1.1/DTD/svg11.dtd">
<svg version="1.1" id="Layer_1" xmlns="http://www.w3.org/2000/svg" xmlns:xlink="http://www.w3.org/1999/xlink" x="0px" y="0px"
	 width="13.016px" height="22.573px" viewBox="16.984 0 13.016 22.573" enable-background="new 16.984 0 13.016 22.573"
	 xml:space="preserve">
<path fill="#FFFFFF" d="M29.87,11.601c0.001-0.002,0.002-0.002,0.004-0.004l0.018-0.018c0.055-0.055,0.088-0.126,0.099-0.198
	c0.014-0.062,0.014-0.127-0.001-0.19c-0.011-0.073-0.044-0.143-0.1-0.2l-0.018-0.015c-0.001-0.002-0.001-0.003-0.002-0.004
	c-0.001-0.001-0.002-0.001-0.004-0.003L19.001,0.104c-0.126-0.126-0.323-0.137-0.462-0.035c-0.273,0.213-0.537,0.445-0.789,0.697
	c-0.254,0.254-0.488,0.521-0.703,0.798v0c-0.095,0.138-0.081,0.328,0.04,0.45l9.271,9.271l-9.27,9.271
	c-0.127,0.126-0.139,0.323-0.034,0.462c0.212,0.274,0.444,0.537,0.695,0.789c0.254,0.255,0.521,0.489,0.799,0.705l0.001-0.002
	c0.137,0.096,0.327,0.082,0.45-0.04l10.866-10.866C29.868,11.604,29.869,11.602,29.87,11.601z"/>
</svg>
