<?xml version="1.0" encoding="utf-8"?>
<!-- Generator: Adobe Illustrator 15.0.0, SVG Export Plug-In . SVG Version: 6.00 Build 0)  -->
<!DOCTYPE svg PUBLIC "-//W3C//DTD SVG 1.1//EN" "http://www.w3.org/Graphics/SVG/1.1/DTD/svg11.dtd">
<svg version="1.1" id="Layer_1" xmlns="http://www.w3.org/2000/svg" xmlns:xlink="http://www.w3.org/1999/xlink" x="0px" y="0px"
	 width="72.167px" height="72.167px" viewBox="0 0 72.167 72.167" enable-background="new 0 0 72.167 72.167" xml:space="preserve">
<g>
	<path d="M46.438,53.393L46.438,53.393c0.749,0.092,1.511,0.142,2.285,0.142c0.781,0,1.549-0.05,2.304-0.142v-0.002
		c0.381-0.052,0.676-0.376,0.678-0.771V18.678c-0.002-0.381-0.276-0.698-0.639-0.765v-0.002c-0.767-0.096-1.548-0.147-2.342-0.147
		c-0.783,0-1.557,0.05-2.314,0.144l0,0c-0.377,0.057-0.666,0.381-0.666,0.774v33.935C45.744,53.018,46.049,53.349,46.438,53.393z"/>
	<g>
		<path d="M36.365,48.851H23.678v-2.277l3.854-0.279c0.526-0.037,0.562-0.178,0.562-0.666V26.49h-4.731
			c-0.387,0-0.492,0.034-0.562,0.386l-0.561,3.049h-2.91v-6.45h21.627v6.45h-2.943l-0.561-3.049
			c-0.072-0.351-0.176-0.386-0.562-0.386h-4.698v19.138c0,0.525,0.071,0.666,0.562,0.701l3.61,0.246V48.851L36.365,48.851z"/>
	</g>
</g>
</svg>
